<svg xmlns="http://www.w3.org/2000/svg" viewBox="0 0 1600 520" role="img" aria-label="Pixel art neon city cyberdeck dashboard banner">
  <defs>
    <linearGradient id="sky" x1="0" y1="0" x2="0" y2="1">
      <stop offset="0" stop-color="#07040f"/>
      <stop offset="0.48" stop-color="#120728"/>
      <stop offset="1" stop-color="#02030a"/>
    </linearGradient>
    <linearGradient id="sun" x1="0" y1="0" x2="0" y2="1">
      <stop offset="0" stop-color="#ffe66d"/>
      <stop offset="0.45" stop-color="#ff3aa7"/>
      <stop offset="1" stop-color="#7a20ff"/>
    </linearGradient>
    <filter id="glow" x="-40%" y="-40%" width="180%" height="180%">
      <feGaussianBlur stdDeviation="8" result="blur"/>
      <feMerge>
        <feMergeNode in="blur"/>
        <feMergeNode in="SourceGraphic"/>
      </feMerge>
    </filter>
    <pattern id="rain" width="48" height="48" patternUnits="userSpaceOnUse">
      <path d="M8 0h4v20H8zM32 20h4v18h-4z" fill="#5ff7ff" opacity=".18"/>
    </pattern>
  </defs>

  <rect width="1600" height="520" fill="url(#sky)"/>
  <rect width="1600" height="520" fill="url(#rain)"/>

  <g opacity=".24">
    <rect x="80" y="64" width="4" height="4" fill="#5ff7ff"/>
    <rect x="234" y="42" width="4" height="4" fill="#ff4fd8"/>
    <rect x="424" y="86" width="4" height="4" fill="#fff06a"/>
    <rect x="1178" y="54" width="4" height="4" fill="#5ff7ff"/>
    <rect x="1436" y="94" width="4" height="4" fill="#ff4fd8"/>
  </g>

  <g filter="url(#glow)">
    <circle cx="800" cy="180" r="118" fill="url(#sun)" opacity=".9"/>
    <rect x="664" y="124" width="272" height="12" fill="#120728"/>
    <rect x="654" y="156" width="292" height="14" fill="#120728"/>
    <rect x="674" y="190" width="252" height="14" fill="#120728"/>
    <rect x="700" y="224" width="200" height="16" fill="#120728"/>
  </g>

  <g>
    <rect x="36" y="212" width="96" height="180" fill="#09081a"/>
    <rect x="52" y="236" width="16" height="28" fill="#19f5ff"/>
    <rect x="88" y="270" width="18" height="42" fill="#ff3ec8"/>
    <rect x="160" y="158" width="134" height="234" fill="#0e0b25"/>
    <rect x="180" y="190" width="24" height="28" fill="#ffe66d"/>
    <rect x="226" y="234" width="20" height="58" fill="#19f5ff"/>
    <rect x="322" y="112" width="110" height="280" fill="#09081a"/>
    <rect x="346" y="146" width="20" height="54" fill="#ff3ec8"/>
    <rect x="386" y="222" width="18" height="34" fill="#8dff57"/>
    <rect x="454" y="190" width="128" height="202" fill="#0c0c22"/>
    <rect x="478" y="226" width="26" height="26" fill="#19f5ff"/>
    <rect x="526" y="264" width="22" height="58" fill="#ffe66d"/>
    <rect x="1018" y="178" width="118" height="214" fill="#0c0c22"/>
    <rect x="1042" y="212" width="20" height="46" fill="#19f5ff"/>
    <rect x="1086" y="278" width="20" height="32" fill="#ff3ec8"/>
    <rect x="1162" y="122" width="142" height="270" fill="#09081a"/>
    <rect x="1188" y="158" width="28" height="54" fill="#8dff57"/>
    <rect x="1240" y="246" width="18" height="70" fill="#19f5ff"/>
    <rect x="1336" y="210" width="96" height="182" fill="#0e0b25"/>
    <rect x="1356" y="246" width="20" height="32" fill="#ffe66d"/>
    <rect x="1400" y="300" width="16" height="40" fill="#ff3ec8"/>
    <rect x="1460" y="168" width="106" height="224" fill="#09081a"/>
    <rect x="1484" y="204" width="18" height="42" fill="#19f5ff"/>
    <rect x="1526" y="282" width="18" height="62" fill="#8dff57"/>
  </g>

  <g opacity=".86">
    <rect x="0" y="392" width="1600" height="128" fill="#050612"/>
    <path d="M0 520 632 392h336l632 128Z" fill="#08091c"/>
    <path d="M640 392 420 520M720 392 620 520M800 392v128M880 392l100 128M960 392l220 128" stroke="#19f5ff" stroke-width="4" opacity=".55"/>
    <path d="M0 460h1600M0 492h1600" stroke="#ff3ec8" stroke-width="4" opacity=".6"/>
  </g>

  <g filter="url(#glow)">
    <rect x="548" y="294" width="504" height="116" rx="0" fill="#070713" stroke="#19f5ff" stroke-width="6"/>
    <rect x="576" y="316" width="142" height="70" fill="#101331" stroke="#ff3ec8" stroke-width="4"/>
    <rect x="744" y="316" width="122" height="70" fill="#101331" stroke="#8dff57" stroke-width="4"/>
    <rect x="892" y="316" width="132" height="70" fill="#101331" stroke="#ffe66d" stroke-width="4"/>
    <rect x="594" y="340" width="36" height="18" fill="#19f5ff"/>
    <rect x="640" y="352" width="48" height="10" fill="#ff3ec8"/>
    <rect x="764" y="358" width="18" height="18" fill="#8dff57"/>
    <rect x="792" y="342" width="18" height="34" fill="#19f5ff"/>
    <rect x="820" y="330" width="18" height="46" fill="#ffe66d"/>
    <rect x="916" y="338" width="86" height="8" fill="#ffe66d"/>
    <rect x="916" y="356" width="64" height="8" fill="#ff3ec8"/>
    <rect x="916" y="374" width="42" height="8" fill="#19f5ff"/>
  </g>

  <g opacity=".92">
    <rect x="248" y="330" width="196" height="94" fill="#09091d" stroke="#ff3ec8" stroke-width="4"/>
    <rect x="268" y="350" width="36" height="12" fill="#19f5ff"/>
    <rect x="268" y="374" width="112" height="10" fill="#ffe66d"/>
    <rect x="268" y="396" width="152" height="10" fill="#8dff57"/>
    <rect x="1156" y="330" width="196" height="94" fill="#09091d" stroke="#8dff57" stroke-width="4"/>
    <rect x="1176" y="350" width="44" height="12" fill="#ff3ec8"/>
    <rect x="1176" y="374" width="134" height="10" fill="#19f5ff"/>
    <rect x="1176" y="396" width="82" height="10" fill="#ffe66d"/>
  </g>
</svg>
